<?xml version="1.0" encoding="UTF-8"?>
<svg width="60px" height="58px" viewBox="0 0 60 58" version="1.1" xmlns="http://www.w3.org/2000/svg">
    <title>插件图标60x60</title>
    <defs>
        <linearGradient x1="-2.47192458%" y1="26.0906162%" x2="77.6357792%" y2="65.7781165%" id="linearGradient-1">
            <stop stop-color="#B8CFF1" offset="0%"></stop>
            <stop stop-color="#005DC9" offset="100%"></stop>
        </linearGradient>
        <linearGradient x1="103.620253%" y1="30.058205%" x2="23.0833593%" y2="58.7342081%" id="linearGradient-2">
            <stop stop-color="#B8CFF1" offset="0%"></stop>
            <stop stop-color="#005DC9" offset="100%"></stop>
        </linearGradient>
        <linearGradient x1="30.4547805%" y1="8.3960842%" x2="65.7878752%" y2="62.1099987%" id="linearGradient-3">
            <stop stop-color="#B8CFF1" offset="1%"></stop>
            <stop stop-color="#005DC9" offset="100%"></stop>
        </linearGradient>
        <linearGradient x1="65.8935211%" y1="6.75380417%" x2="35.6893159%" y2="64.5242162%" id="linearGradient-4">
            <stop stop-color="#B8CFF1" offset="1%"></stop>
            <stop stop-color="#005DC9" offset="100%"></stop>
        </linearGradient>
        <linearGradient x1="40.8630887%" y1="-9.83587707%" x2="58.4713839%" y2="77.8072889%" id="linearGradient-5">
            <stop stop-color="#B8CFF1" offset="1%"></stop>
            <stop stop-color="#005DC9" offset="100%"></stop>
        </linearGradient>
        <linearGradient x1="56.4645889%" y1="-3.73344099%" x2="41.8033622%" y2="87.8371241%" id="linearGradient-6">
            <stop stop-color="#B8CFF1" offset="1%"></stop>
            <stop stop-color="#005DC9" offset="97%"></stop>
        </linearGradient>
        <linearGradient x1="49.9627606%" y1="-12.0619397%" x2="49.9627606%" y2="106.128769%" id="linearGradient-7">
            <stop stop-color="#B8CFF1" offset="0%"></stop>
            <stop stop-color="#005DC9" offset="92%"></stop>
        </linearGradient>
        <linearGradient x1="50%" y1="100%" x2="50%" y2="-42.6717825%" id="linearGradient-8">
            <stop stop-color="#005DC9" offset="0%"></stop>
            <stop stop-color="#B8CFF1" offset="100%"></stop>
        </linearGradient>
        <radialGradient cx="40.8297875%" cy="25.281046%" fx="40.8297875%" fy="25.281046%" r="94.0752201%" gradientTransform="translate(0.408298,0.252810),scale(0.974981,1.000000),translate(-0.408298,-0.252810)" id="radialGradient-9">
            <stop stop-color="#FFE69C" offset="5%"></stop>
            <stop stop-color="#FFC600" offset="26%"></stop>
            <stop stop-color="#FF8800" offset="75%"></stop>
        </radialGradient>
    </defs>
    <g id="页面-1" stroke="none" stroke-width="1" fill="none" fill-rule="evenodd">
        <g id="插件图标60x60" fill-rule="nonzero">
            <path d="M16.0790656,45.5484006 C9.27942498,43.4100931 4.97394429,41.6987471 3.28481581,40.4738574 C0.977538185,38.7975082 0.0251572327,36.7431931 0.672057502,34.8358648 C1.2736457,33.185823 2.89229694,32.0960022 4.69002695,32.1306082 C5.65784115,32.1402374 6.60279736,32.4182357 7.41419587,32.9320361 L8.07906559,33.3414993 L8.24797844,33.4499895 L8.38095238,33.600476 C10.7866448,36.2606185 13.4487208,38.690017 16.3306379,40.855323 L16.6612758,41.1038007 L16.8014376,41.4852663 C17.0619051,42.1893058 17.3854015,42.8696951 17.7681941,43.5185833 L19.6190476,46.6682999 L16.0790656,45.5484006 Z" id="路径" fill="#FFFFFF"></path>
            <path d="M16.5283019,44.2325191 C11.2848158,42.5841674 5.95148248,40.6768391 4.1509434,39.3679569 C2.35040431,38.0590747 1.60287511,36.5927067 2.04492363,35.2908238 C2.4489682,34.2115765 3.51810332,33.5062172 4.69721473,33.5409813 C5.39533423,33.5517319 6.07590894,33.7556504 6.65947889,34.1289284 L7.30637916,34.5278925 C9.7747918,37.2552692 12.5040692,39.7477754 15.4573226,41.9717225 C15.7462724,42.7541555 16.1046181,43.5106097 16.5283019,44.2325191 Z" id="路径" fill="url(#linearGradient-1)"></path>
            <path d="M41.8113208,43.5325821 C42.1680511,42.9298648 42.4745162,42.3002321 42.7277628,41.6497515 L42.8715184,41.2752852 L43.1985624,41.033807 C46.1755917,38.8182234 48.9224731,36.3238582 51.3998203,33.5864772 L51.5363881,33.4324911 L51.7088949,33.3240008 L52.3701707,32.9215371 C53.1797747,32.4067704 54.1238827,32.1286548 55.0907457,32.1201092 C56.8869031,32.0843245 58.5045878,33.1730593 59.1051213,34.821866 C59.7556155,36.7326941 58.8032345,38.7870092 56.4959569,40.4633583 C54.7960467,41.6987471 50.4186882,43.4170925 43.4932615,45.5658991 L39.9712489,46.6578008 L41.8113208,43.5325821 Z" id="路径" fill="#FFFFFF"></path>
            <path d="M55.6370171,39.3504585 C53.8221024,40.6698397 48.3737646,42.5911668 43.0584007,44.2500175 C43.4536996,43.577777 43.792626,42.8755594 44.0718778,42.1502065 C47.1258521,39.8773357 49.9437504,37.3185037 52.4851752,34.5103941 L53.1284816,34.1149297 C53.7120515,33.7416516 54.3926262,33.5377332 55.0907457,33.5269826 C56.2698571,33.4922185 57.3389923,34.1975777 57.7430368,35.2768251 C58.1850854,36.5752082 57.408805,38.0590747 55.6370171,39.3504585 Z" id="路径" fill="url(#linearGradient-2)"></path>
            <path d="M13.9622642,40.7573318 L13.6028751,40.5158536 L13.5597484,40.477357 C11.4421092,38.7418627 9.4521926,36.8637484 7.60467206,34.8568629 L7.60467206,34.8568629 L7.17340521,34.3739063 C5.31719729,32.3503217 3.72500856,30.1110393 2.43306379,27.7070064 C0.74393531,24.4313012 0.636118598,21.3375796 2.10961366,18.99979 C3.40908129,17.0032368 5.66962871,15.7955649 8.09703504,15.8010059 C9.13301543,15.7963185 10.1557737,16.027628 11.083558,16.4765171 L11.6549865,16.7529922 L11.8274933,17.3514384 C12.8697215,20.966613 14.7457323,25.0507454 17.3944295,29.4813467 L17.5884996,29.8103171 L17.5884996,30.5102541 L17.4339623,30.811227 C17.2206121,31.2186034 17.0298618,31.6368336 16.8625337,32.0641142 C16.5419526,32.8765097 16.3012806,33.7167022 16.1437556,34.5733884 L16.1437556,34.6503815 C15.8787192,36.2079273 15.8957477,37.7986314 16.1940701,39.3504585 L16.8553459,42.7801498 L13.9622642,40.7573318 Z" id="路径" fill="#FFFFFF"></path>
            <path d="M16.1617251,30.1847834 L16.1617251,30.1847834 C15.9269059,30.6402943 15.7169696,31.1075705 15.5327942,31.5846574 C15.1713109,32.5082635 14.9064182,33.4650203 14.7421384,34.4404004 L14.7421384,34.4404004 C14.4509141,36.159308 14.4703741,37.9145493 14.7996406,39.6269336 L14.5013477,39.4134528 C12.270703,37.5898033 10.1884091,35.6007038 8.27313567,33.4639882 L8.27313567,33.4639882 C6.49785028,31.5245784 4.9712311,29.3822256 3.72686433,27.0840624 C2.28930818,24.2598166 2.13477089,21.6525513 3.34591195,19.7347239 C4.37930583,18.1480356 6.17837768,17.1907637 8.10781671,17.2008714 C8.9215703,17.1976328 9.72497886,17.3785436 10.4546271,17.7294044 C11.6585804,21.8975292 13.7681941,26.177644 16.1617251,30.1847834 Z" id="路径" fill="url(#linearGradient-3)"></path>
            <path d="M43.3710692,39.4729474 C43.5448056,38.6142093 43.6314753,37.7409257 43.6298293,36.8656821 C43.6342654,35.2081121 43.3210277,33.56429 42.7061995,32.0186183 C42.5732255,31.6896479 42.4438455,31.3991741 42.3180593,31.1366977 L41.9982031,30.4787569 L42.3575921,29.8488136 C44.9595687,25.3902149 46.821204,21.2465878 47.8921833,17.5369217 L47.8921833,16.8369847 L48.7008086,16.4520193 C49.624763,16.0113343 50.6405377,15.7838062 51.6693621,15.7870443 C54.0960141,15.7807772 56.3558491,16.9887935 57.6531896,18.9857913 C59.1374663,21.3235809 59.0224618,24.4173024 57.3333333,27.6930076 C56.0384539,30.0972336 54.4452127,32.337474 52.589398,34.3634073 C50.7040182,36.4678723 48.661951,38.4341866 46.4797844,40.2463778 L46.4402516,40.2813747 L46.3432165,40.3548681 C46.1096137,40.5193533 45.8724169,40.6873381 45.6244385,40.8588227 L42.6307278,43.0216281 L43.3710692,39.4729474 Z" id="路径" fill="#FFFFFF"></path>
            <path d="M56.0610961,27.0840624 C54.8177677,29.3828397 53.2910644,31.5253107 51.5148248,33.4639882 C49.6628433,35.5301829 47.6542056,37.4580926 45.5058401,39.2314692 L45.5058401,39.2314692 L44.787062,39.7424232 C44.9797925,38.7938659 45.0760946,37.829127 45.0745732,36.8621824 C45.0778212,35.0311922 44.7317277,33.215548 44.0539084,31.5076643 C43.9209344,31.1786939 43.7807727,30.8532232 43.6262354,30.5347519 C46.0089847,26.4506194 48.1257862,22.044516 49.3477089,17.722405 L49.3477089,17.722405 C50.0765142,17.3770422 50.8768163,17.1986716 51.6873315,17.2009049 C53.6142201,17.1931771 55.4100152,18.1501499 56.4420485,19.7347239 C57.6531896,21.6455519 57.5166217,24.2528172 56.0610961,27.0840624 Z" id="路径" fill="url(#linearGradient-4)"></path>
            <path d="M15.7196765,29.488346 C14.0798325,26.721972 12.666644,23.8339397 11.4932615,20.8511234 L11.0655885,20.8511234 L11.0655885,19.6822286 C10.7457323,18.7688108 10.4869721,17.9323861 10.2749326,17.1309582 C10.131177,16.5955064 9.99460916,16.0425562 9.88319856,15.4966053 C8.93800539,10.9855113 10.2102426,8.28025478 11.4465409,6.8033877 C12.8372699,5.19229517 14.8563316,4.22072734 17.0153671,4.12368136 C19.1744026,4.02663537 21.27679,4.81294914 22.8140162,6.29243368 L23.2668464,6.71589557 L23.2668464,7.31084202 C23.1769991,11.1604956 23.7879605,16.4450199 25.0637916,23.0069294 L25.279425,24.1058305 L24.2264151,24.5537902 C23.0998924,25.0345512 22.0456349,25.6620625 21.0925427,26.4191223 L20.916442,26.5591097 C19.863172,27.4198798 18.9485235,28.4297026 18.2030548,29.5548401 L16.916442,31.4971653 L15.7196765,29.488346 Z" id="路径" fill="#FFFFFF"></path>
            <path d="M23.6262354,23.2694058 C22.386168,23.8036429 21.2256816,24.4981633 20.1761006,25.3342199 L20.1761006,25.3342199 C18.9334711,26.3191526 17.8577234,27.4883454 16.9883199,28.7989081 C15.213511,25.8214485 13.7183738,22.6940348 12.5211141,19.4547491 L12.5211141,19.4547491 C12.2048518,18.5623294 11.9209344,17.6734094 11.6873315,16.7879891 C11.5435759,16.2630363 11.4237796,15.7415833 11.3279425,15.2236299 C10.4941599,11.2479877 11.5579515,8.92419682 12.5965858,7.69230769 C13.7314489,6.39000318 15.3716914,5.60636239 17.1238877,5.52934802 C18.876084,5.45233365 20.5821545,6.08889378 21.8328841,7.28634423 C21.7070979,11.7099461 22.5049416,17.477427 23.6262354,23.2694058 Z" id="路径" fill="url(#linearGradient-5)"></path>
            <path d="M41.5956873,29.8138168 C40.8118605,28.5688334 39.8235938,27.4575068 38.6702606,26.5241128 L38.4797844,26.3771261 C37.6095183,25.6937022 36.6573792,25.1155361 35.6442049,24.655281 L34.6163522,24.1898229 L34.8427673,23.1084202 C36.3809524,15.7590817 37.0458221,10.3765661 36.8265948,7.13585777 L36.8265948,6.41492266 L37.3045822,5.99496045 C38.8702902,4.65547454 40.9237283,3.98599161 43.0020397,4.137417 C45.080351,4.2888424 47.0086192,5.24843174 48.3522013,6.79988801 C49.5884996,8.28025478 50.8679245,10.99951 49.9155436,15.4966053 C49.7969452,16.0530552 49.6675651,16.6025058 49.5274034,17.1274585 C49.3153639,17.9428851 49.0566038,18.7933086 48.7619048,19.6542311 L48.7008086,19.8327151 C47.477497,23.2737848 45.9303415,26.5974437 44.0790656,29.7613215 L42.8823001,31.8611325 L41.5956873,29.8138168 Z" id="路径" fill="#FFFFFF"></path>
            <path d="M48.4851752,15.2166305 C48.3773585,15.7275845 48.2551662,16.2490376 48.1257862,16.77749 C47.902965,17.6267469 47.6370171,18.4958354 47.3279425,19.3847554 L47.3279425,19.3847554 C46.1332326,22.7435381 44.6221585,25.9875557 42.8140162,29.0753832 C41.9016115,27.6276282 40.7392737,26.3442109 39.378257,25.2817246 L39.378257,25.2817246 C38.4176846,24.5272102 37.3665624,23.8890952 36.2479784,23.3813957 C37.5777179,17.0189683 38.5193172,10.8735214 38.2569632,7.03786659 L38.2569632,7.03786659 C39.5301861,5.94944401 41.1991605,5.40491484 42.8887652,5.52666821 C44.57837,5.64842158 46.1468563,6.42624301 47.2416891,7.68530832 C48.2551662,8.92769651 49.3189578,11.2409883 48.4851752,15.2166305 Z" id="路径" fill="url(#linearGradient-6)"></path>
            <path d="M34.4079066,24.1688248 C31.518075,23.1765645 28.3716565,23.1470207 25.4627134,24.0848324 L23.902965,24.5922867 L23.5974843,23.0174284 C22.5480683,17.7014069 21.9586703,13.1798138 21.8292902,9.58563729 C21.7969452,8.73171415 21.7933513,7.88129068 21.8292902,7.06236439 C21.8292902,6.91187793 21.8292902,6.76489116 21.8580413,6.62490376 C22.2353998,2.07531322 26.393531,0 30.0952381,0 C34.9290207,0 37.6028751,2.87324141 38.1060198,5.71498565 C38.1419587,5.92146707 38.1743037,6.12794848 38.195867,6.34492896 C38.2884028,7.16410945 38.3268167,7.98823152 38.3108715,8.8122069 C38.2713387,12.1369077 37.5920934,16.9524743 36.3054807,23.1294184 L35.9748428,24.7042766 L34.4079066,24.1688248 Z" id="路径" fill="#FFFFFF"></path>
            <path d="M36.8553459,8.79120879 C36.8122192,12.4203822 35.9892183,17.5404214 34.8787062,22.8459439 C31.6875099,21.7535275 28.2145466,21.7215296 25.0026954,22.7549521 C24.0898473,18.0793729 23.4070081,13.4317911 23.2632525,9.52964233 C23.2309075,8.68271856 23.2273136,7.86729194 23.2632525,7.07986281 C23.2632525,6.96087352 23.2704403,6.84421735 23.2848158,6.72989431 C23.5902965,3.05522503 26.982929,1.37537622 30.0916442,1.37537622 C32.9667565,1.37537622 36.1293801,2.77525023 36.6864331,5.92496675 C36.7151842,6.09645132 36.7439353,6.27493526 36.7654987,6.46741793 C36.8474122,7.23928106 36.8774253,8.0155329 36.8553459,8.79120879 Z" id="路径" fill="url(#linearGradient-7)"></path>
            <path d="M30.0125786,57.6923077 C19.0691824,57.6923077 8.80862534,53.0692238 3.20934412,47.8931896 L0,44.9079583 L4.39532794,45.4924057 C4.79918633,45.5452161 5.20617422,45.572105 5.61365678,45.5728984 C6.94517932,45.5710195 8.25972247,45.2817751 9.46271339,44.7259747 L10.425876,44.2815147 L11.1446541,45.0479457 C12.8459012,46.8676576 15.2554644,47.9055626 17.7825696,47.9071884 C18.3994648,47.9069909 19.014757,47.8460192 19.6190476,47.7252047 L20.2731357,47.5922167 L20.8014376,47.9981802 C21.3092018,48.3834133 21.8435546,48.7342084 22.4007188,49.0480857 C26.8587391,51.5812011 32.3777314,51.5570769 36.8122192,48.9850913 C37.4078583,48.6366696 37.9771453,48.2472111 38.5157233,47.8196962 L39.1015274,47.3507384 L39.8203055,47.5572199 C43.10432,48.4735222 46.6378459,47.4969948 48.9380054,45.0374466 L49.6567835,44.2675159 L50.62354,44.7154756 C52.1795043,45.4380398 53.9169642,45.7066558 55.6262354,45.488906 L60,44.9289564 L56.8050314,47.8896899 C51.2237197,53.0727235 40.9559748,57.6923077 30.0125786,57.6923077 Z" id="路径" fill="#FFFFFF"></path>
            <path d="M30.0125786,56.2924337 C19.3530997,56.2924337 9.52740341,51.8303353 4.20485175,46.8677819 C6.21028992,47.1380103 8.25309011,46.8301931 10.0808625,45.9823616 C12.5644965,48.6348495 16.3001121,49.8159366 19.9101527,49.0900819 C20.470056,49.5170846 21.0583414,49.907568 21.671159,50.2589767 C26.5838424,53.0507889 32.6660292,53.0239831 37.5525606,50.188983 C38.2087625,49.8052843 38.8357225,49.3760449 39.4285714,48.9045986 C43.239079,49.9692442 47.3399079,48.8366236 50.0089847,45.9823616 C51.8157339,46.8199714 53.8322601,47.1322626 55.8167116,46.8817806 C50.4761905,51.833835 40.6684636,56.2924337 30.0125786,56.2924337 Z" id="路径" fill="url(#linearGradient-8)"></path>
            <path d="M29.8005391,51.77784 C25.3238396,51.7768848 21.071844,49.8679639 18.1638581,46.5535865 C15.2558721,43.239209 13.9832655,38.8514635 14.6810422,34.5453909 L14.6810422,34.4264016 C14.8455796,33.44843 15.1116951,32.4892605 15.475292,31.5636593 C16.4349749,29.1157488 18.0387558,26.9565868 20.1257862,25.3027228 L20.5211141,24.9877511 L20.5426774,24.9877511 C25.9856038,20.9715848 33.5027831,20.9544483 38.9649596,24.9457549 L38.9649596,24.9457549 L39.3602875,25.2537272 C44.4190658,29.2174493 46.3600736,35.8574393 44.2033295,41.8212806 C42.0465854,47.785122 36.2612318,51.7755395 29.7681941,51.77784 L29.8005391,51.77784 Z" id="路径" fill="#FFFFFF"></path>
            <path d="M43.6729698,36.8831805 C43.6803234,41.9795781 40.7416588,46.646233 36.0737519,48.9508601 C31.405845,51.2554872 25.8033144,50.8057695 21.5859558,47.787918 C17.3685973,44.7700666 15.2543324,39.6978107 16.1185984,34.6713796 L16.1185984,34.6713796 C16.268132,33.7856413 16.5089411,32.9168304 16.8373765,32.078113 C17.7044531,29.8524123 19.1584752,27.8884883 21.0530099,26.3841254 L21.0530099,26.3841254 C26.1267947,22.3677548 33.3928439,22.3502519 38.4869721,26.3421292 L38.4869721,26.3421292 C40.3899635,27.8321007 41.8563478,29.7839092 42.7385445,32.0011199 C43.3515685,33.5534891 43.6658812,35.2024907 43.6657682,36.8656821 L43.6729698,36.8831805 Z" id="路径" fill="url(#radialGradient-9)"></path>
            <path d="M21.5777179,36.1097501 L25.7825696,33.3834955 C25.9940709,33.243375 26.2678206,33.2286921 26.4938456,33.3453453 C26.7198707,33.4619985 26.8610765,33.690843 26.8607367,33.9399454 L26.8607367,34.0659341 C26.860695,34.2957462 26.7400458,34.5095984 26.5408805,34.632883 L23.7628032,36.3582278 C23.5669187,36.4821664 23.4487288,36.6941989 23.4487288,36.921677 C23.4487288,37.1491552 23.5669187,37.3611877 23.7628032,37.4851263 L26.55885,39.2804648 C26.7532096,39.4056061 26.8705274,39.6170206 26.8715184,39.843914 L26.8715184,39.843914 C26.870694,40.092578 26.7296277,40.3206902 26.504311,40.4377091 C26.2789943,40.5547281 26.0058723,40.541726 25.7933513,40.4038637 L21.5992812,37.7021068 C21.4063678,37.5777198 21.2903121,37.3674619 21.2902066,37.1421572 L21.2902066,36.6662 C21.2866336,36.4460487 21.3940472,36.2381603 21.5777179,36.1097501 Z" id="路径" stroke="#FFFFFF" stroke-width="0.5" fill="#FFFFFF"></path>
            <path d="M30.853549,32.3335721 L30.8751123,32.3335721 C31.0891112,32.3320694 31.2915948,32.4278262 31.422688,32.5925447 C31.5537811,32.7572632 31.5984833,32.9720953 31.5435759,33.1735144 L29.4878706,40.9358158 C29.4077227,41.2331549 29.1314993,41.4402861 28.8158131,41.4397714 L28.7942498,41.4397714 C28.5807719,41.4398752 28.3792647,41.3437553 28.2484942,41.1794421 C28.1177236,41.0151289 28.0724166,40.801127 28.1257862,40.599846 L30.1850854,32.8375446 C30.2637805,32.5407488 30.5387683,32.3334354 30.853549,32.3335721 L30.853549,32.3335721 Z" id="路径" stroke="#FFFFFF" stroke-width="0.5" fill="#FFFFFF"></path>
            <path d="M32.8230009,34.0589347 L32.8230009,33.988941 C32.8226611,33.7398386 32.963867,33.5109941 33.189892,33.3943409 C33.4159171,33.2776877 33.6896668,33.2923706 33.901168,33.4324911 L38.0017969,36.1517463 C38.1899595,36.2778721 38.3027406,36.4857548 38.3036839,36.7081963 L38.3036839,37.1491566 C38.3038198,37.3727141 38.1891794,37.581538 37.9982031,37.7056065 L33.8975741,40.3828655 C33.6860729,40.522986 33.4123232,40.5376689 33.1862981,40.4210157 C32.9602731,40.3043626 32.8190672,40.075518 32.8194057,39.8264156 L32.8194057,39.8264156 C32.8189541,39.6000289 32.9349994,39.3884759 33.1284816,39.2629663 L35.9245283,37.4676279 C36.1204128,37.3436893 36.2386027,37.1316567 36.2386027,36.9041786 C36.2386027,36.6767005 36.1204128,36.4646679 35.9245283,36.3407293 L33.146451,34.6153846 C32.9486164,34.4954009 32.8268166,34.2858617 32.8230009,34.0589347 Z" id="路径" stroke="#FFFFFF" stroke-width="0.5" fill="#FFFFFF"></path>
        </g>
    </g>
</svg>