<?xml version="1.0" encoding="UTF-8"?>
<svg width="66px" height="16px" viewBox="0 0 66 16" version="1.1" xmlns="http://www.w3.org/2000/svg">
    <title>白色启用</title>
    <defs>
        <linearGradient x1="-2.47192458%" y1="26.0906162%" x2="77.6357792%" y2="65.7781165%" id="linearGradient-1">
            <stop stop-color="#B8CFF1" offset="0%"></stop>
            <stop stop-color="#005DC9" offset="100%"></stop>
        </linearGradient>
        <linearGradient x1="103.620253%" y1="30.058205%" x2="23.0833593%" y2="58.7342081%" id="linearGradient-2">
            <stop stop-color="#B8CFF1" offset="0%"></stop>
            <stop stop-color="#005DC9" offset="100%"></stop>
        </linearGradient>
        <linearGradient x1="30.4547805%" y1="8.3960842%" x2="65.7878752%" y2="62.1099987%" id="linearGradient-3">
            <stop stop-color="#B8CFF1" offset="1%"></stop>
            <stop stop-color="#005DC9" offset="100%"></stop>
        </linearGradient>
        <linearGradient x1="65.8935211%" y1="6.75380417%" x2="35.6893159%" y2="64.5242162%" id="linearGradient-4">
            <stop stop-color="#B8CFF1" offset="1%"></stop>
            <stop stop-color="#005DC9" offset="100%"></stop>
        </linearGradient>
        <linearGradient x1="40.8630887%" y1="-9.83587707%" x2="58.4713839%" y2="77.8072889%" id="linearGradient-5">
            <stop stop-color="#B8CFF1" offset="1%"></stop>
            <stop stop-color="#005DC9" offset="100%"></stop>
        </linearGradient>
        <linearGradient x1="56.4645889%" y1="-3.73344099%" x2="41.8033622%" y2="87.8371241%" id="linearGradient-6">
            <stop stop-color="#B8CFF1" offset="1%"></stop>
            <stop stop-color="#005DC9" offset="97%"></stop>
        </linearGradient>
        <linearGradient x1="49.9627606%" y1="-12.0619397%" x2="49.9627606%" y2="106.128769%" id="linearGradient-7">
            <stop stop-color="#B8CFF1" offset="0%"></stop>
            <stop stop-color="#005DC9" offset="92%"></stop>
        </linearGradient>
        <linearGradient x1="50%" y1="100%" x2="50%" y2="-42.6717825%" id="linearGradient-8">
            <stop stop-color="#005DC9" offset="0%"></stop>
            <stop stop-color="#B8CFF1" offset="100%"></stop>
        </linearGradient>
        <radialGradient cx="40.8297875%" cy="25.281046%" fx="40.8297875%" fy="25.281046%" r="94.0752201%" gradientTransform="translate(0.408298,0.252810),scale(0.974981,1.000000),translate(-0.408298,-0.252810)" id="radialGradient-9">
            <stop stop-color="#FFE69C" offset="5%"></stop>
            <stop stop-color="#FFC600" offset="26%"></stop>
            <stop stop-color="#FF8800" offset="75%"></stop>
        </radialGradient>
    </defs>
    <g id="页面-1" stroke="none" stroke-width="1" fill="none" fill-rule="evenodd">
        <g id="白色启用" fill-rule="nonzero">
            <rect id="矩形" fill="#C39494" opacity="0" x="0.985074256" y="0" width="65.0149132" height="14"></rect>
            <g id="张世东logo-shell3-02备份-3" transform="translate(0.000000, 1.000000)">
                <path d="M3.75178197,10.6279602 C2.16519916,10.1290217 1.160587,9.72970766 0.766457023,9.44390005 C0.228092243,9.05275192 0.00587002096,8.57341173 0.156813417,8.12836845 C0.297183996,7.74335871 0.674869285,7.48906718 1.09433962,7.49714192 C1.32016293,7.49938872 1.54065272,7.56425499 1.72997904,7.68414176 L1.8851153,7.77968316 L1.9245283,7.80499755 L1.95555556,7.84011106 C2.51688379,8.46081099 3.13803486,9.02767064 3.81048218,9.5329087 L3.88763103,9.59088682 L3.92033543,9.67989548 C3.9811112,9.84417136 4.05659369,10.0029288 4.14591195,10.1543361 L4.57777778,10.88927 L3.75178197,10.6279602 Z" id="路径" fill="#FFFFFF"></path>
                <path d="M3.85660377,10.3209211 C2.63312369,9.93630573 1.38867925,9.49126245 0.968553459,9.18585661 C0.548427673,8.88045076 0.374004193,8.53829822 0.477148847,8.23452556 C0.571425914,7.98270118 0.820890774,7.81811735 1.09601677,7.82622897 C1.25891132,7.82873744 1.41771209,7.87631842 1.55387841,7.96341663 L1.7048218,8.05650825 C2.28078475,8.69289616 2.91761614,9.27448094 3.6067086,9.79340193 C3.67413023,9.97596963 3.75774423,10.1524756 3.85660377,10.3209211 Z" id="路径" fill="url(#linearGradient-1)"></path>
                <path d="M9.75597484,10.1576025 C9.83921193,10.0169685 9.91072045,9.87005416 9.96981132,9.71827536 L10.0033543,9.63089989 L10.0796646,9.57455496 C10.7743047,9.05758546 11.4152437,8.47556692 11.9932914,7.83684468 L12.0251572,7.80091458 L12.0654088,7.7756002 L12.2197065,7.68169198 C12.4086141,7.56157977 12.628906,7.49668611 12.8545073,7.49469214 C13.2736107,7.48634238 13.6510705,7.74038051 13.791195,8.12510207 C13.9429769,8.57096195 13.7207547,9.05030214 13.1823899,9.44145027 C12.7857442,9.72970766 11.7643606,10.1306549 10.1484277,10.6320431 L9.32662474,10.8868202 L9.75597484,10.1576025 Z" id="路径" fill="#FFFFFF"></path>
                <path d="M12.9819706,9.18177364 C12.5584906,9.48962927 11.2872117,9.93793892 10.0469602,10.3250041 C10.1391966,10.168148 10.2182794,10.0042972 10.2834382,9.83504818 C10.9960322,9.30471165 11.6535418,8.70765087 12.2465409,8.05242528 L12.3966457,7.96015025 C12.532812,7.87305205 12.6916128,7.82547107 12.8545073,7.8229626 C13.1296333,7.81485098 13.3790982,7.97943481 13.4733753,8.23125919 C13.5765199,8.53421525 13.3953878,8.88045076 12.9819706,9.18177364 Z" id="路径" fill="url(#linearGradient-2)"></path>
                <path d="M3.25786164,9.5100441 L3.17400419,9.45369917 L3.1639413,9.44471664 C2.66982547,9.03976797 2.20551161,8.60154129 1.77442348,8.13326801 L1.77442348,8.13326801 L1.67379455,8.02057815 C1.24067937,7.5484084 0.869168663,7.02590917 0.567714885,6.46496815 C0.173584906,5.70063694 0.148427673,4.97876858 0.492243187,4.43328434 C0.795452301,3.96742192 1.32291337,3.68563182 1.88930818,3.68690138 C2.13103693,3.68580765 2.36968053,3.73977986 2.58616352,3.84452066 L2.71949686,3.90903152 L2.75974843,4.04866895 C3.00293501,4.8922097 3.44067086,5.84517393 4.05870021,6.87898089 L4.10398323,6.95574065 L4.10398323,7.11905928 L4.06792453,7.1892863 C4.01814283,7.2843408 3.97363442,7.38192785 3.93459119,7.48162665 C3.85978894,7.67118561 3.80363215,7.86723052 3.76687631,8.06712396 L3.76687631,8.08508901 C3.70503447,8.44851636 3.7090078,8.81968066 3.77861635,9.18177364 L3.93291405,9.98203495 L3.25786164,9.5100441 Z" id="路径" fill="#FFFFFF"></path>
                <path d="M3.77106918,7.04311612 L3.77106918,7.04311612 C3.71627805,7.14940201 3.66729291,7.25843312 3.62431866,7.36975339 C3.53997254,7.58526148 3.47816425,7.80850474 3.43983229,8.03609342 L3.43983229,8.03609342 C3.37187995,8.43717187 3.37642063,8.84672817 3.45324948,9.2462845 L3.3836478,9.19647232 C2.86316403,8.7709541 2.37729546,8.30683088 1.93039832,7.80826392 L1.93039832,7.80826392 C1.51616506,7.35573496 1.15995392,6.85585264 0.869601677,6.31961457 C0.534171908,5.66062388 0.498113208,5.05226196 0.780712788,4.6047689 C1.02183803,4.23454164 1.44162146,4.01117819 1.8918239,4.01353666 C2.08169974,4.012781 2.26916174,4.0549935 2.439413,4.13686102 C2.72033543,5.10942349 3.21257862,6.10811694 3.77106918,7.04311612 Z" id="路径" fill="url(#linearGradient-3)"></path>
                <path d="M10.1199161,9.2103544 C10.1604546,9.00998216 10.1806776,8.80621599 10.1802935,8.60199249 C10.1813286,8.21522615 10.1082398,7.83166767 9.96477987,7.47101094 C9.93375262,7.39425118 9.90356394,7.32647395 9.87421384,7.26522946 L9.79958071,7.11170995 L9.88343816,6.96472317 C10.490566,5.92438347 10.9249476,4.95753715 11.1748428,4.09194839 L11.1748428,3.92862976 L11.363522,3.83880451 C11.5791114,3.73597801 11.8161255,3.68288811 12.0561845,3.68364368 C12.6224033,3.68218134 13.1496981,3.96405183 13.4524109,4.43001797 C13.7987421,4.9755022 13.7719078,5.69737057 13.3777778,6.46170178 C13.0756393,7.02268784 12.703883,7.5454106 12.2708595,8.01812837 C11.8309376,8.5091702 11.3544552,8.96797688 10.845283,9.39082149 L10.8360587,9.39898742 L10.8134172,9.41613588 C10.7589099,9.45451576 10.7035639,9.49371223 10.6457023,9.5337253 L9.94716981,10.0383799 L10.1199161,9.2103544 Z" id="路径" fill="#FFFFFF"></path>
                <path d="M13.0809224,6.31961457 C12.7908125,6.85599594 12.4345817,7.35590582 12.0201258,7.80826392 C11.5879968,8.29037602 11.1193146,8.74022161 10.6180294,9.15400947 L10.6180294,9.15400947 L10.4503145,9.27323208 C10.4952849,9.05190205 10.5177554,8.8267963 10.5174004,8.60117589 C10.5181583,8.17394485 10.4374031,7.75029453 10.2792453,7.35178834 C10.248218,7.27502858 10.2155136,7.19908542 10.1794549,7.12477544 C10.7354298,6.1718112 11.2293501,5.1437204 11.5144654,4.13522783 L11.5144654,4.13522783 C11.68452,4.05464318 11.8712571,4.01302336 12.0603774,4.01354448 C12.5099847,4.01174132 12.9290035,4.23503499 13.1698113,4.6047689 C13.4524109,5.05062878 13.4205451,5.65899069 13.0809224,6.31961457 Z" id="路径" fill="url(#linearGradient-4)"></path>
                <path d="M3.66792453,6.88061408 C3.28529425,6.23512681 2.95555027,5.56125259 2.68176101,4.86526213 L2.58197065,4.86526213 L2.58197065,4.59252001 C2.50733753,4.37938919 2.44696017,4.18422342 2.39748428,3.99722358 C2.3639413,3.87228483 2.33207547,3.74326311 2.30607966,3.61587457 C2.08553459,2.56328597 2.38238994,1.93205945 2.67085954,1.58745713 C2.99536298,1.21153554 3.46647737,0.98483638 3.97025232,0.962192317 C4.47402727,0.939548253 4.96458434,1.12302147 5.32327044,1.46823453 L5.42893082,1.5670423 L5.42893082,1.70586314 C5.40796646,2.60411563 5.55052411,3.83717132 5.84821803,5.36828352 L5.89853249,5.62469378 L5.65283019,5.7292177 C5.38997489,5.84139528 5.14398147,5.98781459 4.92159329,6.16446187 L4.88050314,6.19712559 C4.63474014,6.39797196 4.42132215,6.63359727 4.24737945,6.89612935 L3.94716981,7.34933856 L3.66792453,6.88061408 Z" id="路径" fill="#FFFFFF"></path>
                <path d="M5.51278826,5.42952801 C5.22343921,5.55418335 4.95265905,5.71623809 4.70775681,5.91131798 L4.70775681,5.91131798 C4.41780993,6.1411356 4.16680212,6.41394727 3.9639413,6.71974522 C3.54981923,6.02500464 3.20095388,5.29527479 2.92159329,4.53944145 L2.92159329,4.53944145 C2.84779874,4.33121019 2.78155136,4.12379553 2.72704403,3.91719745 C2.69350105,3.79470848 2.66554857,3.67303609 2.64318658,3.5521803 C2.44863732,2.62453046 2.69685535,2.08231259 2.93920335,1.79487179 C3.20400474,1.49100074 3.58672799,1.30815122 3.99557379,1.2901812 C4.40441959,1.27221119 4.80250271,1.42074188 5.09433962,1.70014699 C5.06498952,2.73232076 5.25115304,4.07806631 5.51278826,5.42952801 Z" id="路径" fill="url(#linearGradient-5)"></path>
                <path d="M9.70566038,6.95655724 C9.52276744,6.66606113 9.29217189,6.40675159 9.0230608,6.18895966 L8.97861635,6.15466275 C8.77555427,5.99519718 8.55338849,5.86029176 8.31698113,5.75289891 L8.07714885,5.64429201 L8.12997904,5.39196472 C8.48888889,3.67711906 8.64402516,2.42119876 8.59287212,1.66503348 L8.59287212,1.49681529 L8.70440252,1.39882411 C9.06973438,1.08627739 9.54886995,0.930064708 10.0338093,0.9653973 C10.5187486,1.00072989 10.9686778,1.22463407 11.2821803,1.58664054 C11.5706499,1.93205945 11.8691824,2.56655234 11.6469602,3.61587457 C11.6192872,3.74571289 11.5890985,3.87391801 11.5563941,3.99640699 C11.5069182,4.1866732 11.4465409,4.38510534 11.3777778,4.58598726 L11.363522,4.62763351 C11.0780826,5.43054979 10.7170797,6.2060702 10.2851153,6.94430835 L10.00587,7.43426425 L9.70566038,6.95655724 Z" id="路径" fill="#FFFFFF"></path>
                <path d="M11.3132075,3.55054712 C11.2880503,3.66976972 11.2595388,3.7914421 11.2293501,3.91474767 C11.1773585,4.11290762 11.115304,4.31569492 11.0431866,4.52310959 L11.0431866,4.52310959 C10.7644209,5.30682556 10.411837,6.063763 9.98993711,6.78425608 C9.77704269,6.44644658 9.50583054,6.14698255 9.18825996,5.89906908 L9.18825996,5.89906908 C8.9641264,5.72301572 8.71886457,5.5741222 8.45786164,5.45565899 C8.76813417,3.9710926 8.98784067,2.53715499 8.92662474,1.64216887 L8.92662474,1.64216887 C9.2237101,1.3882036 9.61313744,1.2611468 10.0073786,1.28955592 C10.4016197,1.31796503 10.7675998,1.4994567 11.0230608,1.79323861 C11.2595388,2.08312919 11.5077568,2.62289727 11.3132075,3.55054712 Z" id="路径" fill="url(#linearGradient-6)"></path>
                <path d="M8.02851153,5.63939245 C7.35421749,5.40786505 6.62005319,5.40097149 5.94129979,5.61979422 L5.57735849,5.73820023 L5.50607966,5.3707333 C5.26121593,4.13032827 5.12368973,3.07528989 5.09350105,2.2366487 C5.08595388,2.03739997 5.0851153,1.83896783 5.09350105,1.64788502 C5.09350105,1.61277152 5.09350105,1.5784746 5.10020964,1.54581088 C5.18825996,0.484239752 6.15849057,0 7.02222222,0 C8.15010482,0 8.77400419,0.670422995 8.89140461,1.33349665 C8.89979036,1.38167565 8.90733753,1.42985465 8.91236897,1.48048342 C8.93396066,1.67162554 8.9429239,1.86392069 8.93920335,2.05618161 C8.92997904,2.83194512 8.77148847,3.95557733 8.47127883,5.39686428 L8.39412998,5.76433121 L8.02851153,5.63939245 Z" id="路径" fill="#FFFFFF"></path>
                <path d="M8.59958071,2.05128205 C8.58951782,2.89808917 8.39748428,4.09276498 8.13836478,5.33072024 C7.39375232,5.07582308 6.5833942,5.06835691 5.83396226,5.30948881 C5.62096436,4.21852033 5.46163522,3.1340846 5.42809224,2.22358321 C5.42054507,2.02596766 5.4197065,1.83570145 5.42809224,1.65196799 C5.42809224,1.62420382 5.42976939,1.59698405 5.43312369,1.57030867 C5.50440252,0.71288584 6.29601677,0.320921117 7.02138365,0.320921117 C7.69224319,0.320921117 8.43018868,0.647558386 8.56016771,1.38249224 C8.56687631,1.42250531 8.57358491,1.46415156 8.57861635,1.50906418 C8.59772952,1.68916558 8.60473257,1.87029101 8.59958071,2.05128205 Z" id="路径" fill="url(#linearGradient-7)"></path>
                <path d="M7.00293501,13.4615385 C4.44947589,13.4615385 2.05534591,12.3828189 0.74884696,11.1750776 L0,10.4785236 L1.02557652,10.6148947 C1.11981014,10.6272171 1.21477398,10.6334912 1.30985325,10.6336763 C1.62054184,10.6332379 1.92726858,10.5657475 2.20796646,10.4360608 L2.4327044,10.3323534 L2.60041929,10.5111873 C2.99737694,10.9357868 3.55960835,11.1779646 4.14926625,11.1783439 C4.29320846,11.1782979 4.43677663,11.1640712 4.57777778,11.1358811 L4.73039832,11.1048506 L4.85366876,11.1995754 C4.97214708,11.2894631 5.0968294,11.3713153 5.22683438,11.4445533 C6.26703913,12.0356136 7.55480399,12.0299846 8.58951782,11.4298546 C8.72850028,11.3485562 8.8613339,11.2576826 8.9870021,11.1579291 L9.12368973,11.0485056 L9.29140461,11.0966846 C10.0576747,11.3104885 10.882164,11.0826321 11.4188679,10.5087375 L11.5865828,10.329087 L11.8121593,10.433611 C12.1752177,10.6022093 12.580625,10.6648864 12.9794549,10.6140781 L14,10.4834232 L13.2545073,11.174261 C11.9522013,12.3836355 9.55639413,13.4615385 7.00293501,13.4615385 Z" id="路径" fill="#FFFFFF"></path>
                <path d="M7.00293501,13.1349012 C4.51572327,13.1349012 2.2230608,12.0937449 0.981132075,10.9358158 C1.44906765,10.9988691 1.92572103,10.9270451 2.35220126,10.7292177 C2.93171585,11.3481315 3.8033595,11.6237186 4.64570231,11.4543524 C4.7763464,11.5539864 4.91361299,11.6450992 5.05660377,11.7270946 C6.20289657,12.3785174 7.62207348,12.3722627 8.76226415,11.7107627 C8.91537792,11.621233 9.06166858,11.5210771 9.2,11.411073 C10.0891184,11.6594903 11.0459785,11.3952122 11.6687631,10.7292177 C12.0903379,10.92466 12.5608607,10.9975279 13.0238994,10.9390821 C11.7777778,12.0945615 9.48930818,13.1349012 7.00293501,13.1349012 Z" id="路径" fill="url(#linearGradient-8)"></path>
                <path d="M6.95345912,12.081496 C5.90889591,12.0812731 4.91676361,11.6358583 4.23823355,10.8625035 C3.55970349,10.0891488 3.26276194,9.06534149 3.42557652,8.06059121 L3.42557652,8.03282705 C3.46396857,7.80463366 3.52606219,7.58082745 3.61090147,7.36485383 C3.83482748,6.79367473 4.20904302,6.28987026 4.69601677,5.90396864 L4.78825996,5.83047526 L4.7932914,5.83047526 C6.06330755,4.89336978 7.81731605,4.88937127 9.0918239,5.82067614 L9.0918239,5.82067614 L9.18406709,5.89253634 C10.3644487,6.81740483 10.8173505,8.36673583 10.3141102,9.75829882 C9.81086993,11.1498618 8.46095409,12.0809592 6.94591195,12.081496 L6.95345912,12.081496 Z" id="路径" fill="#FFFFFF"></path>
                <path d="M10.1903596,8.60607545 C10.1920755,9.79523488 9.50638706,10.884121 8.41720878,11.4218674 C7.32803051,11.9596137 6.02077335,11.8546795 5.03672302,11.1505142 C4.0526727,10.4463489 3.55934424,9.2628225 3.76100629,8.08998857 L3.76100629,8.08998857 C3.79589747,7.88331631 3.85208627,7.68059375 3.92872117,7.48489303 C4.13103905,6.96556287 4.47031088,6.50731393 4.91236897,6.15629593 L4.91236897,6.15629593 C6.0962521,5.2191428 7.79166358,5.21505877 8.9802935,6.14649682 L8.9802935,6.14649682 C9.42432481,6.49415683 9.76648115,6.94957882 9.97232704,7.46692798 C10.115366,7.82914746 10.1887056,8.2139145 10.1886792,8.60199249 L10.1903596,8.60607545 Z" id="路径" fill="url(#radialGradient-9)"></path>
                <path d="M5.03480084,8.42560836 L6.01593291,7.78948228 C6.0652832,7.75678751 6.12915814,7.7533615 6.18189731,7.78058057 C6.23463649,7.80779964 6.26758453,7.8611967 6.26750524,7.91932059 L6.26750524,7.94871795 C6.2674955,8.00234079 6.23934402,8.05223962 6.19287212,8.08100604 L5.54465409,8.48358648 C5.4989477,8.51250548 5.47137006,8.56197975 5.47137006,8.61505798 C5.47137006,8.6681362 5.4989477,8.71761047 5.54465409,8.74652948 L6.19706499,9.16544178 C6.24241556,9.19464142 6.26978972,9.24397147 6.27002096,9.29691328 L6.27002096,9.29691328 C6.26982859,9.35493487 6.23691313,9.40816104 6.18433923,9.43546546 C6.13176534,9.46276988 6.06803686,9.45973607 6.01844864,9.42756819 L5.03983229,8.79715826 C4.99481916,8.76813463 4.96773948,8.71907445 4.96771488,8.66650335 L4.96771488,8.55544668 C4.96688118,8.50407804 4.99194434,8.45557073 5.03480084,8.42560836 Z" id="路径" fill="#FFFFFF"></path>
                <path d="M7.19916143,7.54450017 L7.20419287,7.54450017 C7.25412595,7.54414953 7.30137213,7.56649278 7.33196053,7.6049271 C7.36254893,7.64336142 7.37297944,7.69348891 7.36016771,7.74048669 L6.88050314,9.55169035 C6.86180195,9.62106948 6.79734983,9.66940008 6.72368973,9.66927999 L6.71865828,9.66927999 C6.66884677,9.66930422 6.62182843,9.64687623 6.59131531,9.60853649 C6.56080218,9.57019675 6.55023055,9.52026297 6.56268344,9.4732974 L7.04318658,7.66209374 C7.06154878,7.59284138 7.12571261,7.54446827 7.19916143,7.54450017 L7.19916143,7.54450017 Z" id="路径" fill="#FFFFFF"></path>
                <path d="M7.65870021,7.94708476 L7.65870021,7.9307529 C7.65862092,7.87262901 7.69156896,7.81923195 7.74430814,7.79201287 C7.79704731,7.7647938 7.86092225,7.76821981 7.91027254,7.80091458 L8.86708595,8.43540748 C8.91099055,8.46483683 8.93730613,8.51334278 8.93752623,8.56524579 L8.93752623,8.66813653 C8.93755796,8.72029995 8.91080853,8.76902552 8.86624738,8.79797485 L7.90943396,9.42266863 C7.86008368,9.4553634 7.79620874,9.45878941 7.74346956,9.43157034 C7.69073039,9.40435126 7.65778235,9.35095421 7.65786133,9.29283031 L7.65786133,9.29283031 C7.65775596,9.24000673 7.6848332,9.19064438 7.72997904,9.16135881 L8.38238994,8.74244651 C8.42809633,8.71352751 8.45567397,8.66405324 8.45567397,8.61097501 C8.45567397,8.55789679 8.42809633,8.50842252 8.38238994,8.47950351 L7.73417191,8.07692308 C7.6880105,8.04892688 7.65959055,8.0000344 7.65870021,7.94708476 Z" id="路径" fill="#FFFFFF"></path>
            </g>
            <g id="TFB" transform="translate(17.731340, 2.000000)" fill="#515151" font-family="PingFang-SC-Regular, PingFang SC" font-size="10" font-weight="normal">
                <text id="CodeShell">
                    <tspan x="0" y="11">CodeShell</tspan>
                </text>
            </g>
        </g>
    </g>
</svg>